<svg id="visual" viewBox="0 0 900 600" width="900" height="600" xmlns="http://www.w3.org/2000/svg" xmlns:xlink="http://www.w3.org/1999/xlink" version="1.1"><rect x="0" y="0" width="900" height="600" fill="#001220"></rect><path d="M228 0L232.7 8.3C237.3 16.7 246.7 33.3 248.2 50C249.7 66.7 243.3 83.3 236.7 100C230 116.7 223 133.3 219.7 150C216.3 166.7 216.7 183.3 234.2 200C251.7 216.7 286.3 233.3 300.2 250C314 266.7 307 283.3 291.8 300C276.7 316.7 253.3 333.3 250.2 350C247 366.7 264 383.3 269.3 400C274.7 416.7 268.3 433.3 257 450C245.7 466.7 229.3 483.3 220.3 500C211.3 516.7 209.7 533.3 220 550C230.3 566.7 252.7 583.3 263.8 591.7L275 600L0 600L0 591.7C0 583.3 0 566.7 0 550C0 533.3 0 516.7 0 500C0 483.3 0 466.7 0 450C0 433.3 0 416.7 0 400C0 383.3 0 366.7 0 350C0 333.3 0 316.7 0 300C0 283.3 0 266.7 0 250C0 233.3 0 216.7 0 200C0 183.3 0 166.7 0 150C0 133.3 0 116.7 0 100C0 83.3 0 66.7 0 50C0 33.3 0 16.7 0 8.3L0 0Z" fill="#fa7268"></path><path d="M248 0L233.2 8.3C218.3 16.7 188.7 33.3 170.7 50C152.7 66.7 146.3 83.3 157.8 100C169.3 116.7 198.7 133.3 200 150C201.3 166.7 174.7 183.3 181.8 200C189 216.7 230 233.3 231.5 250C233 266.7 195 283.3 183.3 300C171.7 316.7 186.3 333.3 199.2 350C212 366.7 223 383.3 217.2 400C211.3 416.7 188.7 433.3 184.3 450C180 466.7 194 483.3 204 500C214 516.7 220 533.3 217.3 550C214.7 566.7 203.3 583.3 197.7 591.7L192 600L0 600L0 591.7C0 583.3 0 566.7 0 550C0 533.3 0 516.7 0 500C0 483.3 0 466.7 0 450C0 433.3 0 416.7 0 400C0 383.3 0 366.7 0 350C0 333.3 0 316.7 0 300C0 283.3 0 266.7 0 250C0 233.3 0 216.7 0 200C0 183.3 0 166.7 0 150C0 133.3 0 116.7 0 100C0 83.3 0 66.7 0 50C0 33.3 0 16.7 0 8.3L0 0Z" fill="#ef5f67"></path><path d="M159 0L162.5 8.3C166 16.7 173 33.3 174.3 50C175.7 66.7 171.3 83.3 168.3 100C165.3 116.7 163.7 133.3 167.5 150C171.3 166.7 180.7 183.3 170 200C159.3 216.7 128.7 233.3 128.3 250C128 266.7 158 283.3 174.2 300C190.3 316.7 192.7 333.3 193.8 350C195 366.7 195 383.3 189.2 400C183.3 416.7 171.7 433.3 169 450C166.3 466.7 172.7 483.3 181.8 500C191 516.7 203 533.3 196.3 550C189.7 566.7 164.3 583.3 151.7 591.7L139 600L0 600L0 591.7C0 583.3 0 566.7 0 550C0 533.3 0 516.7 0 500C0 483.3 0 466.7 0 450C0 433.3 0 416.7 0 400C0 383.3 0 366.7 0 350C0 333.3 0 316.7 0 300C0 283.3 0 266.7 0 250C0 233.3 0 216.7 0 200C0 183.3 0 166.7 0 150C0 133.3 0 116.7 0 100C0 83.3 0 66.7 0 50C0 33.3 0 16.7 0 8.3L0 0Z" fill="#e34c67"></path><path d="M82 0L84.5 8.3C87 16.7 92 33.3 100.3 50C108.7 66.7 120.3 83.3 116 100C111.7 116.7 91.3 133.3 83.3 150C75.3 166.7 79.7 183.3 93.7 200C107.7 216.7 131.3 233.3 143.8 250C156.3 266.7 157.7 283.3 148 300C138.3 316.7 117.7 333.3 110.5 350C103.3 366.7 109.7 383.3 104.2 400C98.7 416.7 81.3 433.3 77 450C72.7 466.7 81.3 483.3 95.8 500C110.3 516.7 130.7 533.3 136.8 550C143 566.7 135 583.3 131 591.7L127 600L0 600L0 591.7C0 583.3 0 566.7 0 550C0 533.3 0 516.7 0 500C0 483.3 0 466.7 0 450C0 433.3 0 416.7 0 400C0 383.3 0 366.7 0 350C0 333.3 0 316.7 0 300C0 283.3 0 266.7 0 250C0 233.3 0 216.7 0 200C0 183.3 0 166.7 0 150C0 133.3 0 116.7 0 100C0 83.3 0 66.7 0 50C0 33.3 0 16.7 0 8.3L0 0Z" fill="#d53867"></path><path d="M19 0L19.3 8.3C19.7 16.7 20.3 33.3 28.8 50C37.3 66.7 53.7 83.3 60.8 100C68 116.7 66 133.3 70 150C74 166.7 84 183.3 78.7 200C73.3 216.7 52.7 233.3 48 250C43.3 266.7 54.7 283.3 53.3 300C52 316.7 38 333.3 34.3 350C30.7 366.7 37.3 383.3 45 400C52.7 416.7 61.3 433.3 64.3 450C67.3 466.7 64.7 483.3 65.5 500C66.3 516.7 70.7 533.3 77 550C83.3 566.7 91.7 583.3 95.8 591.7L100 600L0 600L0 591.7C0 583.3 0 566.7 0 550C0 533.3 0 516.7 0 500C0 483.3 0 466.7 0 450C0 433.3 0 416.7 0 400C0 383.3 0 366.7 0 350C0 333.3 0 316.7 0 300C0 283.3 0 266.7 0 250C0 233.3 0 216.7 0 200C0 183.3 0 166.7 0 150C0 133.3 0 116.7 0 100C0 83.3 0 66.7 0 50C0 33.3 0 16.7 0 8.3L0 0Z" fill="#c62368"></path></svg>